Patient4_TMGait_0pt5_01_left_01_GRF.mot
version=1
nRows=26
nColumns=19
inDegrees=no
endheader
time	F1x	F1y	F1z	M1x	M1y	M1z	F2x	F2y	F2z	M2x	M2y	M2z	EC1x	EC1y	EC1z	EC2x	EC2y	EC2z
1.17	0.26517	6.8862	-9.7172	2.2529	3.8725	0.46871	-34.842	762.5865	-71.2845	304.6734	67.8259	602.6693	-0.0592	0.0182	-0.0073	-0.0462	0.0165	0.9585
1.1836	0.16752	5.3179	-6.6134	1.2929	2.6091	0.95622	-30.4799	757.5058	-64.7555	301.0516	61.0344	596.4377	-0.0592	0.0182	-0.0073	-0.0462	0.0165	0.9585
1.1971	0.070374	3.9841	-3.9282	0.46301	1.5037	1.3594	-25.8438	751.6512	-58.8011	297.4038	54.5187	588.8871	-0.0592	0.0182	-0.0073	-0.0462	0.0165	0.9585
1.2107	-0.014782	2.9844	-1.85	-0.18341	0.64172	1.6801	-21.1868	745.8393	-53.7947	294.1257	48.6656	580.7568	-0.0592	0.0182	-0.0073	-0.0462	0.0165	0.9585
1.2243	-0.092282	2.323	-0.38637	-0.64374	0.026497	1.9216	-16.7042	740.9643	-49.8579	291.5521	43.6553	572.8973	-0.0592	0.0182	-0.0073	-0.0462	0.0165	0.9585
1.2379	-0.16633	1.947	0.54126	-0.94266	-0.37145	2.0877	-12.5578	737.7744	-46.9573	289.9099	39.5388	566.0593	-0.0592	0.0182	-0.0073	-0.0462	0.0165	0.9585
1.2514	-0.2448	1.7808	1.0551	-1.1147	-0.60539	2.1888	-8.8645	736.742	-44.9876	289.2982	36.296	560.7678	-0.0592	0.0182	-0.0073	-0.0462	0.0165	0.9585
1.265	-0.33642	1.7386	1.2737	-1.1926	-0.72547	2.2197	-5.6877	738.0376	-43.8153	289.6982	33.8574	557.2853	-0.0592	0.0182	-0.0073	-0.0462	0.0165	0.9585
1.2786	-0.45733	1.7307	1.3077	-1.1986	-0.78802	2.177	-3.0418	741.5328	-43.298	290.9869	32.1239	555.6039	-0.0592	0.0182	-0.0073	-0.0462	0.0165	0.9585
1.2921	-0.61055	1.6743	1.2418	-1.1436	-0.83033	2.0444	-0.88572	746.8321	-43.2986	292.9568	30.9769	555.4769	-0.0592	0.0182	-0.0073	-0.0462	0.0165	0.9585
1.3057	-0.7914	1.4977	1.1372	-1.0266	-0.87475	1.7921	0.85328	753.3137	-43.6734	295.3305	30.2769	556.464	-0.0592	0.0182	-0.0073	-0.0462	0.0165	0.9585
1.3193	-0.99579	1.1355	1.0268	-0.83632	-0.92867	1.3828	2.269	760.1463	-44.2929	297.7646	29.8899	557.9569	-0.0592	0.0182	-0.0073	-0.0462	0.0165	0.9585
1.3329	-1.2067	0.53225	0.927	-0.55737	-0.98632	0.76768	3.4542	766.3496	-45.0295	299.8723	29.6835	559.2394	-0.0592	0.0182	-0.0073	-0.0462	0.0165	0.9585
1.3464	-1.3824	-0.35327	0.84392	-0.17581	-1.0294	-0.093218	4.4795	770.9622	-45.7709	301.2822	29.55	559.6159	-0.0592	0.0182	-0.0073	-0.0462	0.0165	0.9585
1.36	-1.45	-1.5352	0.76717	0.31192	-1.0186	-1.2154	5.4049	773.2102	-46.4106	301.6999	29.3911	558.5162	-0.0592	0.0182	-0.0073	-0.0462	0.0165	0.9585
1.3736	-1.3046	-2.9546	0.68464	0.88443	-0.90646	-2.5466	6.2625	772.6003	-46.9099	300.94	29.17	555.5768	-0.0592	0.0182	-0.0073	-0.0462	0.0165	0.9585
1.3871	-0.81261	-4.4376	0.56924	1.474	-0.62017	-3.9272	7.0865	769.0146	-47.2871	298.96	28.8851	550.6864	-0.0592	0.0182	-0.0073	-0.0462	0.0165	0.9585
1.4007	0.19529	-5.6441	0.40606	1.9486	-0.08542	-5.053	7.9316	762.7813	-47.638	295.8901	28.5789	544.0236	-0.0592	0.0182	-0.0073	-0.0462	0.0165	0.9585
1.4143	1.8944	-6.0119	0.17227	2.0905	0.78389	-5.425	8.8594	754.6386	-48.0728	292.0238	28.2949	536.0486	-0.0592	0.0182	-0.0073	-0.0462	0.0165	0.9585
1.4279	4.4253	-4.7231	-0.13035	1.581	2.0378	-4.3182	9.9505	745.5856	-48.7054	287.7637	28.0848	527.3964	-0.0592	0.0182	-0.0073	-0.0462	0.0165	0.9585
1.4414	7.834	-0.68253	-0.49409	-0.0058593	3.6835	-0.75562	11.2698	736.6489	-49.5804	283.5317	27.9602	518.7428	-0.0592	0.0182	-0.0073	-0.0462	0.0165	0.9585
1.455	11.9814	7.4182	-0.87774	-3.1786	5.6256	6.4526	12.8416	728.5659	-50.6894	279.6449	27.9177	510.6068	-0.0592	0.0182	-0.0073	-0.0462	0.0165	0.9585
1.4686	16.4255	20.9431	-1.209	-8.4683	7.6212	18.559	14.634	721.5034	-51.9292	276.2034	27.9087	503.1464	-0.0592	0.0182	-0.0073	-0.0462	0.0165	0.9585
1.4821	20.2679	41.0102	-1.3512	-16.3101	9.1915	36.6054	16.5725	714.9196	-53.1408	273.0284	27.8662	496.0529	-0.0592	0.0182	-0.0073	-0.0462	0.0165	0.9585
1.4957	22.1251	68.1108	-1.1166	-26.8932	9.6269	61.0867	18.5674	707.5886	-54.1146	269.6738	27.6917	488.549	-0.0592	0.0182	-0.0073	-0.0462	0.0165	0.9585
1.5093	20.6824	102.0804	-0.28234	-40.1445	8.2231	91.929	20.5108	697.8649	-54.6269	265.5263	27.2865	479.5852	-0.0592	0.0182	-0.0073	-0.0462	0.0165	0.9585
